<svg width="19" height="22" viewBox="0 0 19 22" fill="none" xmlns="http://www.w3.org/2000/svg">
<path d="M9.49999 1.33337V2.41901M6.15076 17.4367C8.37661 17.6782 10.6234 17.6782 12.8492 17.4367C12.8335 17.6456 12.7995 17.8531 12.7476 18.0567L12.6558 18.4169C12.3682 19.5454 11.4546 20.4237 10.2882 20.6929C9.76997 20.8126 9.23001 20.8126 8.71178 20.6929C7.54537 20.4237 6.63175 19.5454 6.34418 18.4169L6.25239 18.0567C6.20048 17.8531 6.16651 17.6456 6.15076 17.4367ZM2.81228 7.41947C3.43301 5.2089 5.18875 3.44389 7.43773 2.74045C8.81995 2.30812 10.323 2.3074 11.7027 2.74709C13.9118 3.45107 15.6029 5.19172 16.1957 7.37167L16.8487 9.7735L17.372 12.0602C17.5332 12.7645 17.7525 13.4889 17.8681 14.2016C17.8881 14.3252 17.8985 14.4519 17.8985 14.5809C17.8985 15.733 17.0614 16.7256 15.8968 16.9546L15.4852 17.0355C11.5352 17.8119 7.46475 17.8119 3.51483 17.0355L3.1032 16.9546C1.93855 16.7256 1.10144 15.733 1.10144 14.5809C1.10144 14.4519 1.11185 14.3252 1.13189 14.2016C1.2475 13.4889 1.46679 12.7645 1.62797 12.0602L2.15126 9.7735L2.81228 7.41947Z" stroke="#2B2B2B" stroke-width="1.5" stroke-linecap="round"/>
</svg>
